<?xml version="1.0" encoding="UTF-8" standalone="no"?>
<!DOCTYPE svg PUBLIC "-//W3C//DTD SVG 1.1//EN" "http://www.w3.org/Graphics/SVG/1.1/DTD/svg11.dtd">
<svg width="100%" height="100%" viewBox="0 0 200 200" version="1.1" xmlns="http://www.w3.org/2000/svg" xmlns:xlink="http://www.w3.org/1999/xlink" xml:space="preserve" xmlns:serif="http://www.serif.com/" style="fill-rule:evenodd;clip-rule:evenodd;stroke-linejoin:round;stroke-miterlimit:2;">
    <g transform="matrix(1.74424,0,0,1.67929,-77.3613,-64.1999)">
        <path d="M101.684,41.626C101.684,41.626 109.532,50.263 113.224,51.217C119.493,52.836 125.261,55.745 130.244,59.649C130.821,60.101 141.18,60.076 141.18,60.076C141.18,60.076 140.412,70.417 141.924,72.971C144.327,77.03 146.159,81.481 147.305,86.207C148.204,89.914 154.499,97.78 154.499,97.78C154.499,97.78 148.303,104.795 147.585,108.128C146.478,113.273 144.562,118.11 141.98,122.493C140.173,125.562 141.18,134.892 141.18,134.892C141.18,134.892 131.694,134.832 129.497,136.484C124.347,140.356 118.398,143.182 111.95,144.652C108.646,145.406 101.684,152.475 101.684,152.475C101.684,152.475 94.586,145.39 91.22,144.606C85.437,143.261 80.058,140.823 75.302,137.519C72.724,135.727 62.188,137.519 62.188,137.519C62.188,137.519 63.923,126.544 62.188,123.803C59.065,118.866 56.803,113.307 55.622,107.35C55.009,104.257 48.384,97.78 48.384,97.78C48.384,97.78 55.09,90.547 55.852,87.117C57.215,80.985 59.727,75.297 63.145,70.302C64.834,67.835 64.046,58.056 64.046,58.056C64.046,58.056 74.01,58.812 76.937,56.954C81.213,54.241 85.945,52.209 90.989,51.007C94.425,50.189 101.684,41.626 101.684,41.626Z" style="fill:rgb(255,186,0);fill-opacity:0.6;"/>
        <clipPath id="_clip1">
            <path d="M101.684,41.626C101.684,41.626 109.532,50.263 113.224,51.217C119.493,52.836 125.261,55.745 130.244,59.649C130.821,60.101 141.18,60.076 141.18,60.076C141.18,60.076 140.412,70.417 141.924,72.971C144.327,77.03 146.159,81.481 147.305,86.207C148.204,89.914 154.499,97.78 154.499,97.78C154.499,97.78 148.303,104.795 147.585,108.128C146.478,113.273 144.562,118.11 141.98,122.493C140.173,125.562 141.18,134.892 141.18,134.892C141.18,134.892 131.694,134.832 129.497,136.484C124.347,140.356 118.398,143.182 111.95,144.652C108.646,145.406 101.684,152.475 101.684,152.475C101.684,152.475 94.586,145.39 91.22,144.606C85.437,143.261 80.058,140.823 75.302,137.519C72.724,135.727 62.188,137.519 62.188,137.519C62.188,137.519 63.923,126.544 62.188,123.803C59.065,118.866 56.803,113.307 55.622,107.35C55.009,104.257 48.384,97.78 48.384,97.78C48.384,97.78 55.09,90.547 55.852,87.117C57.215,80.985 59.727,75.297 63.145,70.302C64.834,67.835 64.046,58.056 64.046,58.056C64.046,58.056 74.01,58.812 76.937,56.954C81.213,54.241 85.945,52.209 90.989,51.007C94.425,50.189 101.684,41.626 101.684,41.626Z"/>
        </clipPath>
        <g clip-path="url(#_clip1)">
            <g transform="matrix(0.825964,0,0,0.83833,11.8386,-6.02289)">
                <ellipse cx="108.777" cy="123.83" rx="47.818" ry="47.393" style="fill:rgb(255,186,0);"/>
            </g>
        </g>
    </g>
    <g id="Layer1">
    </g>
</svg>
