<?xml version="1.0" encoding="UTF-8" standalone="no"?>
<!DOCTYPE svg PUBLIC "-//W3C//DTD SVG 1.1//EN" "http://www.w3.org/Graphics/SVG/1.1/DTD/svg11.dtd">
<svg width="100%" height="100%" viewBox="0 0 200 200" version="1.1" xmlns="http://www.w3.org/2000/svg" xmlns:xlink="http://www.w3.org/1999/xlink" xml:space="preserve" xmlns:serif="http://www.serif.com/" style="fill-rule:evenodd;clip-rule:evenodd;stroke-linecap:round;stroke-linejoin:round;stroke-miterlimit:1.5;">
    <g id="Layer1">
    </g>
    <g>
        <path d="M95.982,43.843L95.982,23.805C95.982,23.805 97.221,21.274 100,21.08C103.009,20.871 104.018,23.805 104.018,23.805L104.018,45.033L114.131,35.318C115.787,36.475 117.941,38.661 119.698,41.113L104.018,56.176L104.018,89.944L128.233,65.817C128.188,65.803 128.167,65.795 128.167,65.795L127.614,43.461C129.287,43.176 130.99,43.04 132.514,43.037L132.64,43.037C133.776,43.04 134.808,43.117 135.647,43.262L136.014,58.064L150.87,43.262C150.87,43.262 153.538,42.353 155.636,44.185C157.908,46.169 156.542,48.954 156.542,48.954L143.356,62.092L156.645,62.108C157.073,65.093 157.031,68.162 156.635,70.144L135.3,70.118L109.725,95.601L144.107,95.601L159.229,80.302C160.915,81.415 163.125,83.546 164.944,85.951L155.406,95.601L175.814,95.601C175.814,95.601 178.345,96.84 178.538,99.619C178.748,102.628 175.814,103.637 175.814,103.637L153.472,103.637L163.554,114.131C162.397,115.787 160.211,117.941 157.759,119.698L142.33,103.637L109.633,103.637L135.5,129.756L156.635,129.731C157.031,131.712 157.073,134.781 156.645,137.767L143.449,137.782L156.643,151.105C156.592,155.296 154.226,157.268 150.934,156.759L136.016,141.697L135.647,156.613C133.657,156.957 130.588,156.919 127.614,156.414L128.167,134.08C128.167,134.08 128.24,134.051 128.404,134.01L104.018,109.386L104.018,144.733L119.698,160.232C118.585,161.917 116.454,164.127 114.049,165.947L104.018,156.032L104.018,176.059C101.033,179.001 97.964,178.738 95.982,176.059L95.982,154.841L85.869,164.557C84.213,163.4 82.059,161.213 80.302,158.762L95.982,143.699L95.982,109.294L69.629,135.551L70.145,156.414C67.172,156.919 64.103,156.957 62.112,156.613L61.785,143.367L48.686,156.418C44.495,156.38 42.515,154.02 43.014,150.726L56.003,137.784L41.115,137.767C40.687,134.781 40.729,131.712 41.124,129.731L63.465,129.757C63.465,129.757 63.512,129.914 63.574,130.241L90.275,103.637L58.197,103.637L42.768,119.698C40.316,117.941 38.129,115.787 36.973,114.131L47.054,103.637L23.56,103.637C20.618,100.652 20.881,97.583 23.56,95.601L45.121,95.601L35.583,85.951C37.402,83.546 39.612,81.415 41.298,80.302L56.419,95.601L90.367,95.601L65.13,70.118L43.253,70.144C42.857,68.162 42.815,65.093 43.243,62.108L57.181,62.092L43.798,48.578C43.798,48.578 42.897,45.907 44.735,43.815C46.726,41.548 49.507,42.923 49.507,42.923L63.89,57.446L64.241,43.262C66.231,42.918 69.3,42.955 72.274,43.461L71.732,65.365L95.982,89.852L95.982,55.141L80.302,39.643C81.415,37.957 83.546,35.747 85.951,33.928L95.982,43.843Z" style="fill:rgb(163,197,203);stroke:white;stroke-width:2px;"/>
    </g>
</svg>
