<?xml version="1.0" encoding="UTF-8" standalone="no"?>
<!DOCTYPE svg PUBLIC "-//W3C//DTD SVG 1.1//EN" "http://www.w3.org/Graphics/SVG/1.1/DTD/svg11.dtd">
<svg width="100%" height="100%" viewBox="0 0 200 200" version="1.1" xmlns="http://www.w3.org/2000/svg" xmlns:xlink="http://www.w3.org/1999/xlink" xml:space="preserve" xmlns:serif="http://www.serif.com/" style="fill-rule:evenodd;clip-rule:evenodd;stroke-linecap:round;stroke-linejoin:round;stroke-miterlimit:1.5;">
    <g id="Layer1">
    </g>
    <path d="M8.284,117.332C8.284,117.332 111.077,121.411 137.581,115.602C152.071,112.426 164.204,100.774 167.305,82.479C170.355,64.48 150.304,38.591 123.142,48.004C95.981,57.418 98.877,85.61 112.147,93.738C121.877,99.698 138.11,99.053 144.64,86.25C151.571,72.662 129.209,56.516 120.648,73.813" style="fill:none;stroke:white;stroke-width:3px;"/>
    <path d="M35.049,109.444L76.143,109.56" style="fill:none;stroke:white;stroke-width:3px;"/>
    <g transform="matrix(1,0,0,1,23.4078,-8.06334)">
        <path d="M35.049,109.444L76.143,109.56" style="fill:none;stroke:white;stroke-width:3px;"/>
    </g>
    <g transform="matrix(1.24777,0.000696288,0.000696288,1,26.6435,28.5407)">
        <path d="M35.049,109.444L76.143,109.56" style="fill:none;stroke:white;stroke-width:2.65px;"/>
    </g>
    <g transform="matrix(0.828082,-0.000483134,-0.000483134,0.999999,15.3861,17.5925)">
        <path d="M35.049,109.444L76.143,109.56" style="fill:none;stroke:white;stroke-width:3.27px;"/>
    </g>
</svg>
