<?xml version="1.0" encoding="UTF-8" standalone="no"?>
<!DOCTYPE svg PUBLIC "-//W3C//DTD SVG 1.1//EN" "http://www.w3.org/Graphics/SVG/1.1/DTD/svg11.dtd">
<svg width="100%" height="100%" viewBox="0 0 2224 1668" version="1.1" xmlns="http://www.w3.org/2000/svg" xmlns:xlink="http://www.w3.org/1999/xlink" xml:space="preserve" xmlns:serif="http://www.serif.com/" style="fill-rule:evenodd;clip-rule:evenodd;stroke-linecap:round;stroke-linejoin:round;stroke-miterlimit:1.5;">
    <g transform="matrix(1,0,0,1,49.1063,-7.69727)">
        <path d="M1632.67,353.421C1622.06,341.784 1576.37,344.061 1576.37,344.061L557.412,344.061C557.412,344.061 506.633,337.976 494.695,348.933C482.758,359.89 485.787,409.802 485.787,409.802L485.787,1271.17C485.787,1271.17 482.587,1320.02 493.412,1331.38C504.237,1342.74 550.737,1339.33 550.737,1339.33L1591,1339.33C1591,1339.33 1628.55,1343.9 1636.71,1333.05C1644.88,1322.19 1640,1274.18 1640,1274.18L1640,413.882C1640,413.882 1643.27,365.057 1632.67,353.421Z" style="fill:none;stroke:rgb(94,17,142);stroke-width:42.07px;"/>
    </g>
    <g transform="matrix(1,0,0,0.847431,9.95812,168.766)">
        <path d="M907.708,936.712L963.125,985.172L1036.39,912.323L1112.5,995.262L1195.62,916.396L1253.51,994.357L1310.9,933.001" style="fill:none;stroke:rgb(94,17,142);stroke-width:45.39px;"/>
    </g>
    <path d="M1539.69,182.638L1539.69,486.72L1539.69,182.638ZM1462.7,285.254L1458.88,285.254L1458.88,454.72L1462.7,454.72L1462.7,285.254ZM1606.22,270.713L1602.4,270.713L1602.4,440.18L1606.22,440.18L1606.22,270.713ZM1379.54,270.713L1381.65,270.713L1381.65,369.987L1379.54,369.987L1379.54,270.713Z" style="fill:none;stroke:rgb(94,17,142);stroke-width:42.07px;"/>
    <path d="M890.784,702.786L940.476,657.873L943.295,660.867L893.92,705.494L944.438,749.11L941.698,752.161L890.855,708.264L841.162,753.177L838.343,750.183L887.719,705.556L837.2,661.939L839.94,658.889L890.784,702.786Z" style="fill:none;stroke:rgb(177,103,223);stroke-width:42.07px;"/>
    <path d="M1316.94,702.302L1366.31,657.873L1369.11,660.835L1320.06,704.98L1370.25,748.127L1367.52,751.145L1317.01,707.721L1267.64,752.15L1264.84,749.188L1313.89,705.042L1263.7,661.896L1266.43,658.878L1316.94,702.302Z" style="fill:none;fill-rule:nonzero;stroke:rgb(177,103,223);stroke-width:42.07px;"/>
</svg>
